<?xml version="1.0" encoding="UTF-8" standalone="no"?>
<!-- Created with Inkscape (http://www.inkscape.org/) -->

<svg
   width="410.12195"
   height="410.12195"
   id="svg2184"
   sodipodi:version="0.32"
   inkscape:version="1.3.2 (091e20e, 2023-11-25, custom)"
   version="1.0"
   sodipodi:docname="Square_book_icon.svg"
   inkscape:output_extension="org.inkscape.output.svg.inkscape"
   xml:space="preserve"
   xmlns:inkscape="http://www.inkscape.org/namespaces/inkscape"
   xmlns:sodipodi="http://sodipodi.sourceforge.net/DTD/sodipodi-0.dtd"
   xmlns="http://www.w3.org/2000/svg"
   xmlns:svg="http://www.w3.org/2000/svg"
   xmlns:rdf="http://www.w3.org/1999/02/22-rdf-syntax-ns#"
   xmlns:cc="http://creativecommons.org/ns#"
   xmlns:dc="http://purl.org/dc/elements/1.1/"><sodipodi:namedview
     id="base"
     pagecolor="#ffffff"
     bordercolor="#666666"
     borderopacity="1.0"
     inkscape:pageopacity="0.0"
     inkscape:pageshadow="2"
     inkscape:zoom="0.98994949"
     inkscape:cx="217.1828"
     inkscape:cy="163.64471"
     inkscape:document-units="px"
     inkscape:current-layer="layer1"
     inkscape:showpageshadow="false"
     showborder="false"
     showgrid="true"
     inkscape:window-width="1920"
     inkscape:window-height="1112"
     inkscape:window-x="-8"
     inkscape:window-y="-8"
     showguides="true"
     inkscape:object-points="false"
     inkscape:object-bbox="false"
     inkscape:grid-points="false"
     width="1052.3622px"
     height="744.09449px"
     inkscape:pagecheckerboard="0"
     inkscape:deskcolor="#d1d1d1"
     inkscape:window-maximized="1" /><defs
     id="defs2186" /><metadata
     id="metadata2189"><rdf:RDF><cc:Work
         rdf:about=""><dc:format>image/svg+xml</dc:format><dc:type
           rdf:resource="http://purl.org/dc/dcmitype/StillImage" /></cc:Work></rdf:RDF></metadata><g
     transform="translate(23.931421,-257.866)"
     inkscape:groupmode="layer"
     id="layer1"
     inkscape:label="Calque 1"><rect
       style="fill:#611f19;fill-opacity:1;stroke:none;stroke-width:50;stroke-linecap:round;stroke-linejoin:round;stroke-dasharray:none;stroke-opacity:1;paint-order:stroke fill markers"
       id="rect5918"
       width="410.12195"
       height="410.12195"
       x="-23.931421"
       y="257.866"
       ry="39.402149" /><path
       style="fill:#daa520;stroke-width:0.354185;fill-opacity:1"
       d="m 160.05966,576.63725 c -22.61106,-10.53689 -55.49252,-17.82014 -91.733952,-20.31909 -10.677904,-0.73628 -12.095862,-0.94258 -14.644461,-2.13074 -2.578365,-1.20201 -5.268598,-3.59964 -6.619158,-5.8992 -2.050095,-3.49062 -1.935503,1.65388 -1.935503,-86.89593 0,-88.67567 -0.119299,-83.3929 1.963484,-86.9469 1.313905,-2.242 4.106992,-4.68162 6.805916,-5.9446 3.073938,-1.43847 5.932947,-1.58693 15.669374,-0.81368 34.12529,2.71016 64.37807,9.04177 84.92359,17.77365 5.94233,2.52551 14.86398,7.22585 16.57655,8.7333 2.86215,2.51936 2.6303,-5.5268 2.6303,91.28281 0,74.95965 -0.0685,86.52327 -0.52158,88.04893 -0.90804,3.05771 -3.79049,5.10659 -7.17058,5.09692 -1.30718,-0.004 -2.6638,-0.4569 -5.94398,-1.98547 z m 33.11632,1.42648 c -1.93204,-0.83557 -3.50132,-2.57977 -4.08284,-4.53793 -0.78819,-2.65413 -0.78819,-173.44374 0,-176.09785 0.83579,-2.81441 2.8389,-4.32549 11.34363,-8.55718 15.54771,-7.73606 36.37647,-13.69657 61.62821,-17.63598 14.24804,-2.22276 35.12646,-4.25248 40.96524,-3.98247 2.66533,0.12324 3.41553,0.31389 5.72294,1.45427 4.12078,2.0366 7.04,5.63307 8.01969,9.88025 0.48124,2.08632 0.48124,163.52457 0,165.61088 -1.18102,5.11999 -5.65775,9.68322 -10.78891,10.99737 -0.77921,0.19956 -4.12625,0.54187 -7.43789,0.76068 -40.64872,2.68578 -74.26767,10.03291 -97.92219,21.40007 -2.96289,1.42381 -5.28264,1.6443 -7.44788,0.70789 z"
       id="path7606" /></g></svg>
