<?xml version="1.0" encoding="UTF-8" standalone="no"?>
<svg
   viewBox="0 0 512 512"
   version="1.1"
   id="svg1"
   sodipodi:docname="pen.svg"
   inkscape:version="1.3.2 (091e20e, 2023-11-25, custom)"
   xmlns:inkscape="http://www.inkscape.org/namespaces/inkscape"
   xmlns:sodipodi="http://sodipodi.sourceforge.net/DTD/sodipodi-0.dtd"
   xmlns="http://www.w3.org/2000/svg"
   xmlns:svg="http://www.w3.org/2000/svg">
  <defs
     id="defs1" />
  <sodipodi:namedview
     id="namedview1"
     pagecolor="#ffffff"
     bordercolor="#666666"
     borderopacity="1.0"
     inkscape:showpageshadow="2"
     inkscape:pageopacity="0.0"
     inkscape:pagecheckerboard="0"
     inkscape:deskcolor="#d1d1d1"
     inkscape:zoom="1.6035156"
     inkscape:cx="255.68819"
     inkscape:cy="256"
     inkscape:window-width="1920"
     inkscape:window-height="1017"
     inkscape:window-x="-8"
     inkscape:window-y="-8"
     inkscape:window-maximized="1"
     inkscape:current-layer="svg1" />
  <!--! Font Awesome Pro 6.3.0 by @fontawesome - https://fontawesome.com License - https://fontawesome.com/license (Commercial License) Copyright 2023 Fonticons, Inc. -->
  <rect
     style="fill:#611f19;fill-opacity:1;stroke-width:15.1181;stroke-linecap:square;stroke-linejoin:bevel;stroke-miterlimit:0;paint-order:markers fill stroke"
     id="rect1"
     width="512"
     height="512"
     x="0"
     y="0" />
  <path
     d="m 329.19901,93.830334 -33.11939,33.119386 88.95703,88.95703 33.11938,-33.11939 c 17.10712,-17.10711 17.10712,-44.82065 0,-61.92778 L 391.19521,93.830334 c -17.10712,-17.107122 -44.82066,-17.107122 -61.92777,0 z M 280.61477,142.41456 121.10798,301.98979 c -7.11656,7.11656 -12.31713,15.94383 -15.19112,25.59224 l -24.223687,82.31948 c -1.710712,5.81642 -0.136857,12.04341 4.105709,16.28598 4.242566,4.24256 10.469559,5.81642 16.217548,4.17413 l 82.31947,-24.22368 c 9.64842,-2.87399 18.47569,-8.07456 25.59225,-15.19112 L 369.5718,231.37158 Z"
     id="path1"
     style="stroke-width:1;fill:#daa520;fill-opacity:1" />
</svg>
