<?xml version="1.0" encoding="UTF-8" standalone="no"?>
<!-- Created with Inkscape (http://www.inkscape.org/) -->

<svg
   width="410.12195"
   height="410.12195"
   id="svg2184"
   sodipodi:version="0.32"
   inkscape:version="1.3.2 (091e20e, 2023-11-25, custom)"
   version="1.0"
   sodipodi:docname="square_book_icon.svg"
   inkscape:output_extension="org.inkscape.output.svg.inkscape"
   xml:space="preserve"
   xmlns:inkscape="http://www.inkscape.org/namespaces/inkscape"
   xmlns:sodipodi="http://sodipodi.sourceforge.net/DTD/sodipodi-0.dtd"
   xmlns="http://www.w3.org/2000/svg"
   xmlns:svg="http://www.w3.org/2000/svg"
   xmlns:rdf="http://www.w3.org/1999/02/22-rdf-syntax-ns#"
   xmlns:cc="http://creativecommons.org/ns#"
   xmlns:dc="http://purl.org/dc/elements/1.1/"><sodipodi:namedview
     id="base"
     pagecolor="#ffffff"
     bordercolor="#666666"
     borderopacity="1.0"
     inkscape:pageopacity="0.0"
     inkscape:pageshadow="2"
     inkscape:zoom="0.98994949"
     inkscape:cx="221.22341"
     inkscape:cy="177.78685"
     inkscape:document-units="px"
     inkscape:current-layer="layer1"
     inkscape:showpageshadow="false"
     showborder="false"
     showgrid="true"
     inkscape:window-width="1920"
     inkscape:window-height="1112"
     inkscape:window-x="-8"
     inkscape:window-y="-8"
     showguides="true"
     inkscape:object-points="false"
     inkscape:object-bbox="false"
     inkscape:grid-points="false"
     width="1052.3622px"
     height="744.09449px"
     inkscape:pagecheckerboard="0"
     inkscape:deskcolor="#d1d1d1"
     inkscape:window-maximized="1" /><defs
     id="defs2186" /><metadata
     id="metadata2189"><rdf:RDF><cc:Work
         rdf:about=""><dc:format>image/svg+xml</dc:format><dc:type
           rdf:resource="http://purl.org/dc/dcmitype/StillImage" /></cc:Work></rdf:RDF></metadata><g
     transform="translate(23.931421,-257.866)"
     inkscape:groupmode="layer"
     id="layer1"
     inkscape:label="Calque 1"><path
       style="fill:#ffffff;fill-opacity:1;stroke-width:0.462042"
       d="M 153.64342,605.3251 C 124.14681,591.5795 81.252219,582.07834 33.974477,578.8184 c -13.929559,-0.96048 -15.779316,-1.2296 -19.10402,-2.77959 -3.363533,-1.56805 -6.8730011,-4.69581 -8.6348361,-7.69564 -2.674393,-4.55358 -2.524905,2.15753 -2.524905,-113.35763 0,-115.67935 -0.155628,-108.78786 2.561408,-113.42413 1.714017,-2.92474 5.3576601,-6.10728 8.8784661,-7.75486 4.010019,-1.87652 7.739658,-2.07018 20.44104,-1.06146 44.517189,3.53546 83.9826,11.79518 110.78468,23.18611 7.7519,3.29459 19.39039,9.42628 21.62447,11.39279 3.73374,3.28656 3.43128,-7.20984 3.43128,119.08041 0,97.7865 -0.0894,112.8715 -0.68041,114.86175 -1.18456,3.98885 -4.94477,6.66166 -9.35418,6.64904 -1.70524,-0.005 -3.47498,-0.59603 -7.75405,-2.59009 z m 43.20096,1.86087 c -2.52039,-1.09001 -4.56755,-3.36535 -5.32615,-5.91982 -1.02821,-3.46237 -1.02821,-226.26114 0,-229.72349 1.09031,-3.67145 3.70341,-5.64269 14.79802,-11.16303 20.28232,-10.09185 47.45389,-17.86747 80.39533,-23.00652 18.58689,-2.89964 45.82325,-5.54745 53.44006,-5.19522 3.47698,0.16077 4.45563,0.40948 7.46569,1.89713 5.37565,2.65679 9.18384,7.34846 10.46187,12.889 0.62779,2.72165 0.62779,213.32138 0,216.04301 -1.54067,6.67914 -7.38066,12.63198 -14.07437,14.34631 -1.0165,0.26033 -5.38278,0.70688 -9.70289,0.99232 -53.02714,3.50366 -96.8838,13.08815 -127.74164,27.91686 -3.86514,1.85739 -6.89131,2.14503 -9.71592,0.92345 z"
       id="path7606" /></g></svg>
